HIERARCHY
ROOT Hips
{
    OFFSET 0.0 0.0 0.0
    CHANNELS 6 Xposition Yposition Zposition Zrotation Xrotation Yrotation
    JOINT Spine
    {
        OFFSET 0.0 10.0 0.0
        CHANNELS 3 Zrotation Xrotation Yrotation
        JOINT Spine1
        {
            OFFSET 0.0 10.0 0.0
            CHANNELS 3 Zrotation Xrotation Yrotation
            JOINT Neck
            {
                OFFSET 0.0 10.0 0.0
                CHANNELS 3 Zrotation Xrotation Yrotation
                JOINT Head
                {
                    OFFSET 0.0 10.0 0.0
                    CHANNELS 3 Zrotation Xrotation Yrotation
                    End Site
                    {
                        OFFSET 0.0 10.0 0.0
                    }
                }
            }
            JOINT LeftArm
            {
                OFFSET -5.0 8.0 0.0
                CHANNELS 3 Zrotation Xrotation Yrotation
                JOINT LeftForeArm
                {
                    OFFSET -10.0 0.0 0.0
                    CHANNELS 3 Zrotation Xrotation Yrotation
                    JOINT LeftHand
                    {
                        OFFSET -10.0 0.0 0.0
                        CHANNELS 3 Zrotation Xrotation Yrotation
                        End Site
                        {
                            OFFSET -5.0 0.0 0.0
                        }
                    }
                }
            }
            JOINT RightArm
            {
                OFFSET 5.0 8.0 0.0
                CHANNELS 3 Zrotation Xrotation Yrotation
                JOINT RightForeArm
                {
                    OFFSET 10.0 0.0 0.0
                    CHANNELS 3 Zrotation Xrotation Yrotation
                    JOINT RightHand
                    {
                        OFFSET 10.0 0.0 0.0
                        CHANNELS 3 Zrotation Xrotation Yrotation
                        End Site
                        {
                            OFFSET 5.0 0.0 0.0
                        }
                    }
                }
            }
        }
    }
    JOINT LeftUpLeg
    {
        OFFSET -5.0 -5.0 0.0
        CHANNELS 3 Zrotation Xrotation Yrotation
        JOINT LeftLeg
        {
            OFFSET 0.0 -15.0 0.0
            CHANNELS 3 Zrotation Xrotation Yrotation
            JOINT LeftFoot
            {
                OFFSET 0.0 -15.0 0.0
                CHANNELS 3 Zrotation Xrotation Yrotation
                End Site
                {
                    OFFSET 0.0 -5.0 0.0
                }
            }
        }
    }
    JOINT RightUpLeg
    {
        OFFSET 5.0 -5.0 0.0
        CHANNELS 3 Zrotation Xrotation Yrotation
        JOINT RightLeg
        {
            OFFSET 0.0 -15.0 0.0
            CHANNELS 3 Zrotation Xrotation Yrotation
            JOINT RightFoot
            {
                OFFSET 0.0 -15.0 0.0
                CHANNELS 3 Zrotation Xrotation Yrotation
                End Site
                {
                    OFFSET 0.0 -5.0 0.0
                }
            }
        }
    }
}
MOTION
Frames: 24
Frame Time: 0.033333
-0.000000 100.000000 30.000000 0.000000 0.000000 0.000000 0.000000 0.000000 0.000000 0.000000 0.000000 0.000000 0.000000 0.000000 0.000000 0.000000 0.000000 0.000000 0.000000 0.000000 0.000000 0.000000 0.000000 0.000000 0.000000 0.000000 0.000000 -0.000000 0.000000 0.000000 -0.000000 0.000000 0.000000 0.000000 0.000000 0.000000 -0.000000 0.000000 0.000000 -0.000000 0.000000 0.000000 0.000000 0.000000 0.000000 0.000000 0.000000 0.000000 0.000000 0.000000 0.000000 0.000000 0.000000 0.000000
0.052264 100.415823 30.500000 0.000000 0.000000 0.000000 0.000000 0.000000 0.000000 0.000000 0.000000 0.000000 0.000000 0.000000 0.000000 0.000000 0.000000 0.000000 -4.158234 0.000000 0.000000 -2.079117 0.000000 0.000000 0.000000 0.000000 0.000000 4.158234 0.000000 0.000000 2.079117 0.000000 0.000000 0.000000 0.000000 0.000000 6.237351 0.000000 0.000000 1.871205 0.000000 0.000000 0.000000 0.000000 0.000000 -6.237351 0.000000 0.000000 -1.871205 0.000000 0.000000 0.000000 0.000000 0.000000
0.103956 100.813473 31.000000 0.000000 0.000000 0.000000 0.000000 0.000000 0.000000 0.000000 0.000000 0.000000 0.000000 0.000000 0.000000 0.000000 0.000000 0.000000 -8.134733 0.000000 0.000000 -4.067366 0.000000 0.000000 0.000000 0.000000 0.000000 8.134733 0.000000 0.000000 4.067366 0.000000 0.000000 0.000000 0.000000 0.000000 12.202099 0.000000 0.000000 3.660630 0.000000 0.000000 0.000000 0.000000 0.000000 -12.202099 0.000000 0.000000 -3.660630 0.000000 0.000000 0.000000 0.000000 0.000000
0.154508 101.175571 31.500000 0.000000 0.000000 0.000000 0.000000 0.000000 0.000000 0.000000 0.000000 0.000000 0.000000 0.000000 0.000000 0.000000 0.000000 0.000000 -11.755705 0.000000 0.000000 -5.877853 0.000000 0.000000 0.000000 0.000000 0.000000 11.755705 0.000000 0.000000 5.877853 0.000000 0.000000 0.000000 0.000000 0.000000 17.633558 0.000000 0.000000 5.290067 0.000000 0.000000 0.000000 0.000000 0.000000 -17.633558 0.000000 0.000000 -5.290067 0.000000 0.000000 0.000000 0.000000 0.000000
0.203368 101.486290 32.000000 0.000000 0.000000 0.000000 0.000000 0.000000 0.000000 0.000000 0.000000 0.000000 0.000000 0.000000 0.000000 0.000000 0.000000 0.000000 -14.862897 0.000000 0.000000 -7.431448 0.000000 0.000000 0.000000 0.000000 0.000000 14.862897 0.000000 0.000000 7.431448 0.000000 0.000000 0.000000 0.000000 0.000000 22.294345 0.000000 0.000000 6.688303 0.000000 0.000000 0.000000 0.000000 0.000000 -22.294345 0.000000 0.000000 -6.688303 0.000000 0.000000 0.000000 0.000000 0.000000
0.250000 101.732051 32.500000 0.000000 0.000000 0.000000 0.000000 0.000000 0.000000 0.000000 0.000000 0.000000 0.000000 0.000000 0.000000 0.000000 0.000000 0.000000 -17.320508 0.000000 0.000000 -8.660254 0.000000 0.000000 0.000000 0.000000 0.000000 17.320508 0.000000 0.000000 8.660254 0.000000 0.000000 0.000000 0.000000 0.000000 25.980762 0.000000 0.000000 7.794229 0.000000 0.000000 0.000000 0.000000 0.000000 -25.980762 0.000000 0.000000 -7.794229 0.000000 0.000000 0.000000 0.000000 0.000000
0.293893 101.902113 33.000000 0.000000 0.000000 0.000000 0.000000 0.000000 0.000000 0.000000 0.000000 0.000000 0.000000 0.000000 0.000000 0.000000 0.000000 0.000000 -19.021130 0.000000 0.000000 -9.510565 0.000000 0.000000 0.000000 0.000000 0.000000 19.021130 0.000000 0.000000 9.510565 0.000000 0.000000 0.000000 0.000000 0.000000 28.531695 0.000000 0.000000 8.559509 0.000000 0.000000 0.000000 0.000000 0.000000 -28.531695 0.000000 0.000000 -8.559509 0.000000 0.000000 0.000000 0.000000 0.000000
0.334565 101.989044 33.500000 0.000000 0.000000 0.000000 0.000000 0.000000 0.000000 0.000000 0.000000 0.000000 0.000000 0.000000 0.000000 0.000000 0.000000 0.000000 -19.890438 0.000000 0.000000 -9.945219 0.000000 0.000000 0.000000 0.000000 0.000000 19.890438 0.000000 0.000000 9.945219 0.000000 0.000000 0.000000 0.000000 0.000000 29.835657 0.000000 0.000000 8.950697 0.000000 0.000000 0.000000 0.000000 0.000000 -29.835657 0.000000 0.000000 -8.950697 0.000000 0.000000 0.000000 0.000000 0.000000
0.371572 101.989044 34.000000 0.000000 0.000000 0.000000 0.000000 0.000000 0.000000 0.000000 0.000000 0.000000 0.000000 0.000000 0.000000 0.000000 0.000000 0.000000 -19.890438 0.000000 0.000000 -9.945219 0.000000 0.000000 0.000000 0.000000 0.000000 19.890438 0.000000 0.000000 9.945219 0.000000 0.000000 0.000000 0.000000 0.000000 29.835657 0.000000 0.000000 8.950697 0.000000 0.000000 0.000000 0.000000 0.000000 -29.835657 0.000000 0.000000 -8.950697 0.000000 0.000000 0.000000 0.000000 0.000000
0.404508 101.902113 34.500000 0.000000 0.000000 0.000000 0.000000 0.000000 0.000000 0.000000 0.000000 0.000000 0.000000 0.000000 0.000000 0.000000 0.000000 0.000000 -19.021130 0.000000 0.000000 -9.510565 0.000000 0.000000 0.000000 0.000000 0.000000 19.021130 0.000000 0.000000 9.510565 0.000000 0.000000 0.000000 0.000000 0.000000 28.531695 0.000000 0.000000 8.559509 0.000000 0.000000 0.000000 0.000000 0.000000 -28.531695 0.000000 0.000000 -8.559509 0.000000 0.000000 0.000000 0.000000 0.000000
0.433013 101.732051 35.000000 0.000000 0.000000 0.000000 0.000000 0.000000 0.000000 0.000000 0.000000 0.000000 0.000000 0.000000 0.000000 0.000000 0.000000 0.000000 -17.320508 0.000000 0.000000 -8.660254 0.000000 0.000000 0.000000 0.000000 0.000000 17.320508 0.000000 0.000000 8.660254 0.000000 0.000000 0.000000 0.000000 0.000000 25.980762 0.000000 0.000000 7.794229 0.000000 0.000000 0.000000 0.000000 0.000000 -25.980762 0.000000 0.000000 -7.794229 0.000000 0.000000 0.000000 0.000000 0.000000
0.456773 101.486290 35.500000 0.000000 0.000000 0.000000 0.000000 0.000000 0.000000 0.000000 0.000000 0.000000 0.000000 0.000000 0.000000 0.000000 0.000000 0.000000 -14.862897 0.000000 0.000000 -7.431448 0.000000 0.000000 0.000000 0.000000 0.000000 14.862897 0.000000 0.000000 7.431448 0.000000 0.000000 0.000000 0.000000 0.000000 22.294345 0.000000 0.000000 6.688303 0.000000 0.000000 0.000000 0.000000 0.000000 -22.294345 0.000000 0.000000 -6.688303 0.000000 0.000000 0.000000 0.000000 0.000000
0.475528 101.175571 36.000000 0.000000 0.000000 0.000000 0.000000 0.000000 0.000000 0.000000 0.000000 0.000000 0.000000 0.000000 0.000000 0.000000 0.000000 0.000000 -11.755705 0.000000 0.000000 -5.877853 0.000000 0.000000 0.000000 0.000000 0.000000 11.755705 0.000000 0.000000 5.877853 0.000000 0.000000 0.000000 0.000000 0.000000 17.633558 0.000000 0.000000 5.290067 0.000000 0.000000 0.000000 0.000000 0.000000 -17.633558 0.000000 0.000000 -5.290067 0.000000 0.000000 0.000000 0.000000 0.000000
0.489074 100.813473 36.500000 0.000000 0.000000 0.000000 0.000000 0.000000 0.000000 0.000000 0.000000 0.000000 0.000000 0.000000 0.000000 0.000000 0.000000 0.000000 -8.134733 0.000000 0.000000 -4.067366 0.000000 0.000000 0.000000 0.000000 0.000000 8.134733 0.000000 0.000000 4.067366 0.000000 0.000000 0.000000 0.000000 0.000000 12.202099 0.000000 0.000000 3.660630 0.000000 0.000000 0.000000 0.000000 0.000000 -12.202099 0.000000 0.000000 -3.660630 0.000000 0.000000 0.000000 0.000000 0.000000
0.497261 100.415823 37.000000 0.000000 0.000000 0.000000 0.000000 0.000000 0.000000 0.000000 0.000000 0.000000 0.000000 0.000000 0.000000 0.000000 0.000000 0.000000 -4.158234 0.000000 0.000000 -2.079117 0.000000 0.000000 0.000000 0.000000 0.000000 4.158234 0.000000 0.000000 2.079117 0.000000 0.000000 0.000000 0.000000 0.000000 6.237351 0.000000 0.000000 1.871205 0.000000 0.000000 0.000000 0.000000 0.000000 -6.237351 0.000000 0.000000 -1.871205 0.000000 0.000000 0.000000 0.000000 0.000000
0.500000 100.000000 37.500000 0.000000 0.000000 0.000000 0.000000 0.000000 0.000000 0.000000 0.000000 0.000000 0.000000 0.000000 0.000000 0.000000 0.000000 0.000000 -0.000000 0.000000 0.000000 -0.000000 0.000000 0.000000 0.000000 0.000000 0.000000 0.000000 0.000000 0.000000 0.000000 0.000000 0.000000 0.000000 0.000000 0.000000 0.000000 0.000000 0.000000 0.000000 0.000000 0.000000 0.000000 0.000000 0.000000 -0.000000 0.000000 0.000000 -0.000000 0.000000 0.000000 0.000000 0.000000 0.000000
0.497261 100.415823 38.000000 0.000000 0.000000 0.000000 0.000000 0.000000 0.000000 0.000000 0.000000 0.000000 0.000000 0.000000 0.000000 0.000000 0.000000 0.000000 4.158234 0.000000 0.000000 2.079117 0.000000 0.000000 0.000000 0.000000 0.000000 -4.158234 0.000000 0.000000 -2.079117 0.000000 0.000000 0.000000 0.000000 0.000000 -6.237351 0.000000 0.000000 -1.871205 0.000000 0.000000 0.000000 0.000000 0.000000 6.237351 0.000000 0.000000 1.871205 0.000000 0.000000 0.000000 0.000000 0.000000
0.489074 100.813473 38.500000 0.000000 0.000000 0.000000 0.000000 0.000000 0.000000 0.000000 0.000000 0.000000 0.000000 0.000000 0.000000 0.000000 0.000000 0.000000 8.134733 0.000000 0.000000 4.067366 0.000000 0.000000 0.000000 0.000000 0.000000 -8.134733 0.000000 0.000000 -4.067366 0.000000 0.000000 0.000000 0.000000 0.000000 -12.202099 0.000000 0.000000 -3.660630 0.000000 0.000000 0.000000 0.000000 0.000000 12.202099 0.000000 0.000000 3.660630 0.000000 0.000000 0.000000 0.000000 0.000000
0.475528 101.175571 39.000000 0.000000 0.000000 0.000000 0.000000 0.000000 0.000000 0.000000 0.000000 0.000000 0.000000 0.000000 0.000000 0.000000 0.000000 0.000000 11.755705 0.000000 0.000000 5.877853 0.000000 0.000000 0.000000 0.000000 0.000000 -11.755705 0.000000 0.000000 -5.877853 0.000000 0.000000 0.000000 0.000000 0.000000 -17.633558 0.000000 0.000000 -5.290067 0.000000 0.000000 0.000000 0.000000 0.000000 17.633558 0.000000 0.000000 5.290067 0.000000 0.000000 0.000000 0.000000 0.000000
0.456773 101.486290 39.500000 0.000000 0.000000 0.000000 0.000000 0.000000 0.000000 0.000000 0.000000 0.000000 0.000000 0.000000 0.000000 0.000000 0.000000 0.000000 14.862897 0.000000 0.000000 7.431448 0.000000 0.000000 0.000000 0.000000 0.000000 -14.862897 0.000000 0.000000 -7.431448 0.000000 0.000000 0.000000 0.000000 0.000000 -22.294345 0.000000 0.000000 -6.688303 0.000000 0.000000 0.000000 0.000000 0.000000 22.294345 0.000000 0.000000 6.688303 0.000000 0.000000 0.000000 0.000000 0.000000
0.433013 101.732051 40.000000 0.000000 0.000000 0.000000 0.000000 0.000000 0.000000 0.000000 0.000000 0.000000 0.000000 0.000000 0.000000 0.000000 0.000000 0.000000 17.320508 0.000000 0.000000 8.660254 0.000000 0.000000 0.000000 0.000000 0.000000 -17.320508 0.000000 0.000000 -8.660254 0.000000 0.000000 0.000000 0.000000 0.000000 -25.980762 0.000000 0.000000 -7.794229 0.000000 0.000000 0.000000 0.000000 0.000000 25.980762 0.000000 0.000000 7.794229 0.000000 0.000000 0.000000 0.000000 0.000000
0.404508 101.902113 40.500000 0.000000 0.000000 0.000000 0.000000 0.000000 0.000000 0.000000 0.000000 0.000000 0.000000 0.000000 0.000000 0.000000 0.000000 0.000000 19.021130 0.000000 0.000000 9.510565 0.000000 0.000000 0.000000 0.000000 0.000000 -19.021130 0.000000 0.000000 -9.510565 0.000000 0.000000 0.000000 0.000000 0.000000 -28.531695 0.000000 0.000000 -8.559509 0.000000 0.000000 0.000000 0.000000 0.000000 28.531695 0.000000 0.000000 8.559509 0.000000 0.000000 0.000000 0.000000 0.000000
0.371572 101.989044 41.000000 0.000000 0.000000 0.000000 0.000000 0.000000 0.000000 0.000000 0.000000 0.000000 0.000000 0.000000 0.000000 0.000000 0.000000 0.000000 19.890438 0.000000 0.000000 9.945219 0.000000 0.000000 0.000000 0.000000 0.000000 -19.890438 0.000000 0.000000 -9.945219 0.000000 0.000000 0.000000 0.000000 0.000000 -29.835657 0.000000 0.000000 -8.950697 0.000000 0.000000 0.000000 0.000000 0.000000 29.835657 0.000000 0.000000 8.950697 0.000000 0.000000 0.000000 0.000000 0.000000
0.334565 101.989044 41.500000 0.000000 0.000000 0.000000 0.000000 0.000000 0.000000 0.000000 0.000000 0.000000 0.000000 0.000000 0.000000 0.000000 0.000000 0.000000 19.890438 0.000000 0.000000 9.945219 0.000000 0.000000 0.000000 0.000000 0.000000 -19.890438 0.000000 0.000000 -9.945219 0.000000 0.000000 0.000000 0.000000 0.000000 -29.835657 0.000000 0.000000 -8.950697 0.000000 0.000000 0.000000 0.000000 0.000000 29.835657 0.000000 0.000000 8.950697 0.000000 0.000000 0.000000 0.000000 0.000000
